<svg xmlns="http://www.w3.org/2000/svg" xmlns:xlink="http://www.w3.org/1999/xlink" width="530" height="129" viewBox="0 0 530 129">
    <defs>
        <path id="a" d="M0 0h529.783v128.594H0z"/>
    </defs>
    <g fill="none" fill-rule="evenodd">
        <mask id="b" fill="#fff">
            <use xlink:href="#a"/>
        </mask>
        <path fill="#FFF" d="M414.227 39.386c-9.047 0-16.287 5.21-21.183 11.927h-.743l1.263-10.897h-37.971l-2.315 11.054 20.96-2.189-.462 2.092-21.277 3.45-14.976 70.557h40.954s4.229-20.27 6.808-32.148c4.124-18.942 14.512-23.224 21.437-23.224 5.848 0 9.493 2.634 10.402 3.372l6.707-31.579c-.65-.367-4.143-2.415-9.604-2.415zm60.113 19.5c6.886 0 10.04 4.977 8.791 11.542l-.42 1.98h-22.03c1.907-8.97 7.313-13.523 13.66-13.523zm2.9 39.232c-2.488 5.897-7.011 8.834-12.278 8.834-5.09 0-9.09-2.637-9.09-10.179 0-3.008.745-5.755.931-6.417h58.994l1.225-5.759c5.093-25.139-8.623-46.709-40.033-46.709-28.045 0-52.564 17.787-57.301 44.48-5.663 31.707 17.281 45.556 41.081 45.556 28.594 0 46.027-11.813 52.363-29.806H477.24zm44.2 27.478c-3.778 0-6.836-3.18-6.836-7.22 0-3.965 3.058-7.17 6.794-7.17h.041c3.777 0 6.795 3.205 6.795 7.21 0 4-3.018 7.216-6.795 7.18zm0-15.712h-.042c-4.637 0-8.415 3.772-8.415 8.492 0 4.795 3.778 8.542 8.415 8.542 4.69 0 8.386-3.747 8.386-8.542 0-4.72-3.695-8.492-8.345-8.492zm-.528 8.193h-1.093v-3.21c.262-.04.598-.082 1.093-.082 1.693 0 2.31.836 2.31 1.666 0 1.17-1.064 1.626-2.31 1.626zm2.035.602v-.075c1.024-.3 1.854-1.06 1.854-2.304 0-.902-.304-1.55-.86-1.96-.579-.421-1.52-.719-2.957-.719-1.135 0-1.884.11-2.675.228v9.477h1.51v-4.085h1.054c1.204 0 1.812.456 2.044 1.667.182 1.244.406 2.116.638 2.418h1.592c-.154-.302-.387-.87-.609-2.343-.192-1.398-.759-2.152-1.59-2.304zM336.01 57.464l-41.05 6.65c2.532 2.753 2.799 9.469 1.034 18.81-2.76 14.661-8.37 20.967-15.005 20.967-4.967 0-8.934-4.396-5.285-21.213 1.702-7.774 3.852-12.936 6.518-16.507l-45.021 7.29-11.03 51.92h37.153l3.324-9.836h.87c4.243 9.944 14.441 12.38 23.782 12.38 20.634 0 39.116-15.842 45.129-46.042 1.922-9.54 1.595-17.909-.42-24.419zm-28.19-19.576c-12.186 0-20.15 6.094-23.378 8.724h-.578l9.225-43.429h-40.956l-12.774 60.134 95.087-9.9c-4.746-10.153-14.252-15.529-26.627-15.529zM169.295 66.292c1.107-5.27 5.126-9.45 10.231-9.45 5.198 0 7.323 4.414 6.402 8.9l-.664 3.228 38.37-4.017c-2.905-19.597-21.224-28.107-42.497-28.107-31.696 0-46.845 15.756-49.83 29.693l-.42 1.975h37.964l.444-2.222zM46.78 87.633H.302c-3.222 29.241 19.738 40.961 49.185 40.961 28.263 0 58.153-9.434 64.81-35.225L43.186 104.9l3.593-17.267zm39.097-39.026c-6.439-1.837-10.91-3.025-17.46-4.813-7.767-2.106-10.97-5.26-9.965-10.272.711-3.497 5.166-6.477 10.93-6.477 7.414 0 11.39 3.924 9.863 10.84l43.323.003c3.554-25.31-16.6-38-47.044-37.887C39.584.08 12.73 15.485 12.73 42.39c0 18.393 12.436 28.094 28.914 33.312l19.143 6.156 54.446-5.618c-2.27-11.45-11.033-22.388-29.356-27.634zm74.717 48.408c.94-4.36 5.48-8.72 13.917-8.72h6.671l-1.513 7.133c-1.22 6.45-5.599 11.524-11.754 11.524-5.79 0-8.425-4.75-7.321-9.937zm-40.2 6c0 13.351 10.025 24.91 26.726 24.91 15.32 0 24.083-6.415 28.073-10.679h.534l-.784 8.134h38.449l9.479-44.225c.386-1.913.695-3.749.89-5.491l-101.67 16.44c-1.15 3.285-1.696 6.948-1.696 10.91z" mask="url(#b)"/>
    </g>
</svg>
